<?xml version="1.0" encoding="utf-8"?>
<!-- Generator: Adobe Illustrator 25.4.1, SVG Export Plug-In . SVG Version: 6.00 Build 0)  -->
<svg version="1.1" id="Laag_1" xmlns="http://www.w3.org/2000/svg" xmlns:xlink="http://www.w3.org/1999/xlink" x="0px" y="0px"
	 viewBox="0 0 39.69 39.69" style="enable-background:new 0 0 39.69 39.69;" xml:space="preserve">
<style type="text/css">
	.st0{fill:#FFF379;}
</style>
<circle class="st0" cx="19.66" cy="19" r="4.29"/>
<path class="st0" d="M19.6,11.97L19.6,11.97c0.35,0,0.64-0.29,0.64-0.64V5.21c0-0.35-0.29-0.64-0.64-0.64l0,0
	c-0.35,0-0.64,0.29-0.64,0.64v6.11C18.97,11.68,19.25,11.97,19.6,11.97z"/>
<path class="st0" d="M26.85,18.95L26.85,18.95c0,0.35,0.29,0.64,0.64,0.64h6.11c0.35,0,0.64-0.29,0.64-0.64v0
	c0-0.35-0.29-0.64-0.64-0.64h-6.11C27.14,18.31,26.85,18.59,26.85,18.95z"/>
<path class="st0" d="M5.07,18.95L5.07,18.95c0,0.35,0.29,0.64,0.64,0.64h6.11c0.35,0,0.64-0.29,0.64-0.64v0
	c0-0.35-0.29-0.64-0.64-0.64H5.71C5.36,18.31,5.07,18.59,5.07,18.95z"/>
<path class="st0" d="M19.6,33.35L19.6,33.35c0.35,0,0.64-0.29,0.64-0.64v-6.11c0-0.35-0.29-0.64-0.64-0.64l0,0
	c-0.35,0-0.64,0.29-0.64,0.64v6.11C18.97,33.06,19.25,33.35,19.6,33.35z"/>
<path class="st0" d="M24.57,23.91L24.57,23.91c-0.25,0.25-0.25,0.65,0,0.9l4.32,4.32c0.25,0.25,0.65,0.25,0.9,0l0,0
	c0.25-0.25,0.25-0.65,0-0.9l-4.32-4.32C25.22,23.66,24.82,23.66,24.57,23.91z"/>
<path class="st0" d="M9.37,8.82L9.37,8.82c-0.25,0.25-0.25,0.65,0,0.9l4.32,4.32c0.25,0.25,0.65,0.25,0.9,0l0,0
	c0.25-0.25,0.25-0.65,0-0.9l-4.32-4.32C10.02,8.57,9.62,8.57,9.37,8.82z"/>
<path class="st0" d="M29.79,8.76L29.79,8.76c-0.25-0.25-0.65-0.25-0.9,0l-4.32,4.32c-0.25,0.25-0.25,0.65,0,0.9v0
	c0.25,0.25,0.65,0.25,0.9,0l4.32-4.32C30.04,9.41,30.04,9.01,29.79,8.76z"/>
<path class="st0" d="M14.53,23.91L14.53,23.91c-0.25-0.25-0.65-0.25-0.9,0L9.3,28.23c-0.25,0.25-0.25,0.65,0,0.9h0
	c0.25,0.25,0.65,0.25,0.9,0l4.32-4.32C14.78,24.56,14.78,24.16,14.53,23.91z"/>
</svg>
